<?xml version="1.0" encoding="UTF-8" standalone="no"?>
<!DOCTYPE svg PUBLIC "-//W3C//DTD SVG 1.1//EN"
 "http://www.w3.org/Graphics/SVG/1.1/DTD/svg11.dtd">
<!-- Generated by graphviz version 2.47.3 (20210619.1520)
 -->
<!-- Title: dependencies Pages: 1 -->
<svg width="2123pt" height="247pt"
 viewBox="0.00 0.00 2123.00 246.80" xmlns="http://www.w3.org/2000/svg" xmlns:xlink="http://www.w3.org/1999/xlink">
<g id="graph0" class="graph" transform="scale(1 1) rotate(0) translate(4 242.8)">
<title>dependencies</title>
<polygon fill="white" stroke="transparent" points="-4,4 -4,-242.8 2119,-242.8 2119,4 -4,4"/>
<text text-anchor="middle" x="1057.5" y="-8.2" font-family="sans-serif" font-size="14.00">dependencies</text>
<g id="clust1" class="cluster">
<title>cluster_AppModule</title>
<polygon fill="none" stroke="black" stroke-dasharray="1,5" points="8,-32.8 8,-230.8 2107,-230.8 2107,-32.8 8,-32.8"/>
</g>
<g id="clust2" class="cluster">
<title>cluster_AppModule_declarations</title>
<polygon fill="none" stroke="black" points="168,-40.8 168,-92.8 2099,-92.8 2099,-40.8 168,-40.8"/>
</g>
<g id="clust16" class="cluster">
<title>cluster_AppModule_imports</title>
<polygon fill="none" stroke="black" points="16,-40.8 16,-92.8 160,-92.8 160,-40.8 16,-40.8"/>
</g>
<g id="clust18" class="cluster">
<title>cluster_AppModule_bootstrap</title>
<polygon fill="none" stroke="black" points="1098,-170.8 1098,-222.8 1222,-222.8 1222,-170.8 1098,-170.8"/>
</g>
<!-- AppComponent -->
<g id="node1" class="node">
<title>AppComponent</title>
<polygon fill="#ffffb3" stroke="black" points="2090.94,-84.8 1985.06,-84.8 1985.06,-48.8 2090.94,-48.8 2090.94,-84.8"/>
<text text-anchor="middle" x="2038" y="-62.6" font-family="Times,serif" font-size="14.00">AppComponent</text>
</g>
<!-- AppModule -->
<g id="node14" class="node">
<title>AppModule</title>
<polygon fill="#8dd3c7" stroke="black" points="1201.66,-149.8 1198.66,-153.8 1177.66,-153.8 1174.66,-149.8 1118.34,-149.8 1118.34,-113.8 1201.66,-113.8 1201.66,-149.8"/>
<text text-anchor="middle" x="1160" y="-127.6" font-family="Times,serif" font-size="14.00">AppModule</text>
</g>
<!-- AppComponent&#45;&gt;AppModule -->
<g id="edge1" class="edge">
<title>AppComponent&#45;&gt;AppModule</title>
<path fill="none" stroke="black" d="M2038,-84.89C2038,-107.93 2038,-144.8 2038,-144.8 2038,-144.8 1211.76,-144.8 1211.76,-144.8"/>
<polygon fill="black" stroke="black" points="1211.76,-141.3 1201.76,-144.8 1211.76,-148.3 1211.76,-141.3"/>
</g>
<!-- FooterComponent -->
<g id="node2" class="node">
<title>FooterComponent</title>
<polygon fill="#ffffb3" stroke="black" points="1966.88,-84.8 1849.12,-84.8 1849.12,-48.8 1966.88,-48.8 1966.88,-84.8"/>
<text text-anchor="middle" x="1908" y="-62.6" font-family="Times,serif" font-size="14.00">FooterComponent</text>
</g>
<!-- FooterComponent&#45;&gt;AppModule -->
<g id="edge2" class="edge">
<title>FooterComponent&#45;&gt;AppModule</title>
<path fill="none" stroke="black" d="M1908,-84.84C1908,-106.46 1908,-139.8 1908,-139.8 1908,-139.8 1211.82,-139.8 1211.82,-139.8"/>
<polygon fill="black" stroke="black" points="1211.82,-136.3 1201.82,-139.8 1211.82,-143.3 1211.82,-136.3"/>
</g>
<!-- ForDirective -->
<g id="node3" class="node">
<title>ForDirective</title>
<polygon fill="#ffffb3" stroke="black" points="1830.53,-84.8 1743.47,-84.8 1743.47,-48.8 1830.53,-48.8 1830.53,-84.8"/>
<text text-anchor="middle" x="1787" y="-62.6" font-family="Times,serif" font-size="14.00">ForDirective</text>
</g>
<!-- ForDirective&#45;&gt;AppModule -->
<g id="edge3" class="edge">
<title>ForDirective&#45;&gt;AppModule</title>
<path fill="none" stroke="black" d="M1787,-85.02C1787,-105.17 1787,-134.8 1787,-134.8 1787,-134.8 1212.11,-134.8 1212.11,-134.8"/>
<polygon fill="black" stroke="black" points="1212.11,-131.3 1202.11,-134.8 1212.11,-138.3 1212.11,-131.3"/>
</g>
<!-- HeaderComponent -->
<g id="node4" class="node">
<title>HeaderComponent</title>
<polygon fill="#ffffb3" stroke="black" points="1724.74,-84.8 1603.26,-84.8 1603.26,-48.8 1724.74,-48.8 1724.74,-84.8"/>
<text text-anchor="middle" x="1664" y="-62.6" font-family="Times,serif" font-size="14.00">HeaderComponent</text>
</g>
<!-- HeaderComponent&#45;&gt;AppModule -->
<g id="edge4" class="edge">
<title>HeaderComponent&#45;&gt;AppModule</title>
<path fill="none" stroke="black" d="M1664,-85.02C1664,-103.63 1664,-129.8 1664,-129.8 1664,-129.8 1211.67,-129.8 1211.67,-129.8"/>
<polygon fill="black" stroke="black" points="1211.67,-126.3 1201.67,-129.8 1211.67,-133.3 1211.67,-126.3"/>
</g>
<!-- HomeComponent -->
<g id="node5" class="node">
<title>HomeComponent</title>
<polygon fill="#ffffb3" stroke="black" points="1584.55,-84.8 1469.45,-84.8 1469.45,-48.8 1584.55,-48.8 1584.55,-84.8"/>
<text text-anchor="middle" x="1527" y="-62.6" font-family="Times,serif" font-size="14.00">HomeComponent</text>
</g>
<!-- HomeComponent&#45;&gt;AppModule -->
<g id="edge5" class="edge">
<title>HomeComponent&#45;&gt;AppModule</title>
<path fill="none" stroke="black" d="M1527,-84.83C1527,-101.86 1527,-124.8 1527,-124.8 1527,-124.8 1211.74,-124.8 1211.74,-124.8"/>
<polygon fill="black" stroke="black" points="1211.74,-121.3 1201.74,-124.8 1211.74,-128.3 1211.74,-121.3"/>
</g>
<!-- NavComponent -->
<g id="node6" class="node">
<title>NavComponent</title>
<polygon fill="#ffffb3" stroke="black" points="1451.15,-84.8 1346.85,-84.8 1346.85,-48.8 1451.15,-48.8 1451.15,-84.8"/>
<text text-anchor="middle" x="1399" y="-62.6" font-family="Times,serif" font-size="14.00">NavComponent</text>
</g>
<!-- NavComponent&#45;&gt;AppModule -->
<g id="edge6" class="edge">
<title>NavComponent&#45;&gt;AppModule</title>
<path fill="none" stroke="black" d="M1399,-85.04C1399,-100.37 1399,-119.8 1399,-119.8 1399,-119.8 1211.9,-119.8 1211.9,-119.8"/>
<polygon fill="black" stroke="black" points="1211.9,-116.3 1201.9,-119.8 1211.9,-123.3 1211.9,-116.3"/>
</g>
<!-- ProductCreateComponent -->
<g id="node7" class="node">
<title>ProductCreateComponent</title>
<polygon fill="#ffffb3" stroke="black" points="1328.91,-84.8 1167.09,-84.8 1167.09,-48.8 1328.91,-48.8 1328.91,-84.8"/>
<text text-anchor="middle" x="1248" y="-62.6" font-family="Times,serif" font-size="14.00">ProductCreateComponent</text>
</g>
<!-- ProductCreateComponent&#45;&gt;AppModule -->
<g id="edge7" class="edge">
<title>ProductCreateComponent&#45;&gt;AppModule</title>
<path fill="none" stroke="black" d="M1184.56,-84.91C1184.56,-84.91 1184.56,-103.79 1184.56,-103.79"/>
<polygon fill="black" stroke="black" points="1181.06,-103.79 1184.56,-113.79 1188.06,-103.79 1181.06,-103.79"/>
</g>
<!-- ProductCrudComponent -->
<g id="node8" class="node">
<title>ProductCrudComponent</title>
<polygon fill="#ffffb3" stroke="black" points="1149.38,-84.8 996.62,-84.8 996.62,-48.8 1149.38,-48.8 1149.38,-84.8"/>
<text text-anchor="middle" x="1073" y="-62.6" font-family="Times,serif" font-size="14.00">ProductCrudComponent</text>
</g>
<!-- ProductCrudComponent&#45;&gt;AppModule -->
<g id="edge8" class="edge">
<title>ProductCrudComponent&#45;&gt;AppModule</title>
<path fill="none" stroke="black" d="M1133.81,-84.91C1133.81,-84.91 1133.81,-103.79 1133.81,-103.79"/>
<polygon fill="black" stroke="black" points="1130.31,-103.79 1133.81,-113.79 1137.31,-103.79 1130.31,-103.79"/>
</g>
<!-- ProductDeleteComponent -->
<g id="node9" class="node">
<title>ProductDeleteComponent</title>
<polygon fill="#ffffb3" stroke="black" points="978.91,-84.8 817.09,-84.8 817.09,-48.8 978.91,-48.8 978.91,-84.8"/>
<text text-anchor="middle" x="898" y="-62.6" font-family="Times,serif" font-size="14.00">ProductDeleteComponent</text>
</g>
<!-- ProductDeleteComponent&#45;&gt;AppModule -->
<g id="edge9" class="edge">
<title>ProductDeleteComponent&#45;&gt;AppModule</title>
<path fill="none" stroke="black" d="M898,-85.04C898,-100.37 898,-119.8 898,-119.8 898,-119.8 1108.2,-119.8 1108.2,-119.8"/>
<polygon fill="black" stroke="black" points="1108.2,-123.3 1118.2,-119.8 1108.2,-116.3 1108.2,-123.3"/>
</g>
<!-- ProductRead2Component -->
<g id="node10" class="node">
<title>ProductRead2Component</title>
<polygon fill="#ffffb3" stroke="black" points="799.15,-84.8 638.85,-84.8 638.85,-48.8 799.15,-48.8 799.15,-84.8"/>
<text text-anchor="middle" x="719" y="-62.6" font-family="Times,serif" font-size="14.00">ProductRead2Component</text>
</g>
<!-- ProductRead2Component&#45;&gt;AppModule -->
<g id="edge10" class="edge">
<title>ProductRead2Component&#45;&gt;AppModule</title>
<path fill="none" stroke="black" d="M719,-84.83C719,-101.86 719,-124.8 719,-124.8 719,-124.8 1108.11,-124.8 1108.11,-124.8"/>
<polygon fill="black" stroke="black" points="1108.11,-128.3 1118.11,-124.8 1108.11,-121.3 1108.11,-128.3"/>
</g>
<!-- ProductReadComponent -->
<g id="node11" class="node">
<title>ProductReadComponent</title>
<polygon fill="#ffffb3" stroke="black" points="620.65,-84.8 467.35,-84.8 467.35,-48.8 620.65,-48.8 620.65,-84.8"/>
<text text-anchor="middle" x="544" y="-62.6" font-family="Times,serif" font-size="14.00">ProductReadComponent</text>
</g>
<!-- ProductReadComponent&#45;&gt;AppModule -->
<g id="edge11" class="edge">
<title>ProductReadComponent&#45;&gt;AppModule</title>
<path fill="none" stroke="black" d="M544,-85.02C544,-103.63 544,-129.8 544,-129.8 544,-129.8 1108.14,-129.8 1108.14,-129.8"/>
<polygon fill="black" stroke="black" points="1108.14,-133.3 1118.14,-129.8 1108.14,-126.3 1108.14,-133.3"/>
</g>
<!-- ProductUpdateComponent -->
<g id="node12" class="node">
<title>ProductUpdateComponent</title>
<polygon fill="#ffffb3" stroke="black" points="449.81,-84.8 284.19,-84.8 284.19,-48.8 449.81,-48.8 449.81,-84.8"/>
<text text-anchor="middle" x="367" y="-62.6" font-family="Times,serif" font-size="14.00">ProductUpdateComponent</text>
</g>
<!-- ProductUpdateComponent&#45;&gt;AppModule -->
<g id="edge12" class="edge">
<title>ProductUpdateComponent&#45;&gt;AppModule</title>
<path fill="none" stroke="black" d="M367,-85.02C367,-105.17 367,-134.8 367,-134.8 367,-134.8 1108.2,-134.8 1108.2,-134.8"/>
<polygon fill="black" stroke="black" points="1108.2,-138.3 1118.2,-134.8 1108.2,-131.3 1108.2,-138.3"/>
</g>
<!-- RedDirective -->
<g id="node13" class="node">
<title>RedDirective</title>
<polygon fill="#ffffb3" stroke="black" points="266.13,-84.8 175.87,-84.8 175.87,-48.8 266.13,-48.8 266.13,-84.8"/>
<text text-anchor="middle" x="221" y="-62.6" font-family="Times,serif" font-size="14.00">RedDirective</text>
</g>
<!-- RedDirective&#45;&gt;AppModule -->
<g id="edge13" class="edge">
<title>RedDirective&#45;&gt;AppModule</title>
<path fill="none" stroke="black" d="M221,-84.84C221,-106.46 221,-139.8 221,-139.8 221,-139.8 1108.14,-139.8 1108.14,-139.8"/>
<polygon fill="black" stroke="black" points="1108.14,-143.3 1118.14,-139.8 1108.14,-136.3 1108.14,-143.3"/>
</g>
<!-- AppComponent  -->
<g id="node16" class="node">
<title>AppComponent </title>
<polygon fill="#80b1d3" stroke="black" points="1214.44,-214.8 1105.56,-214.8 1105.56,-178.8 1214.44,-178.8 1214.44,-214.8"/>
<text text-anchor="middle" x="1160" y="-192.6" font-family="Times,serif" font-size="14.00">AppComponent </text>
</g>
<!-- AppModule&#45;&gt;AppComponent  -->
<g id="edge15" class="edge">
<title>AppModule&#45;&gt;AppComponent </title>
<path fill="none" stroke="black" stroke-dasharray="1,5" d="M1160,-149.91C1160,-149.91 1160,-168.79 1160,-168.79"/>
<polygon fill="black" stroke="black" points="1156.5,-168.79 1160,-178.79 1163.5,-168.79 1156.5,-168.79"/>
</g>
<!-- AppRoutingModule -->
<g id="node15" class="node">
<title>AppRoutingModule</title>
<polygon fill="#8dd3c7" stroke="black" points="152.27,-84.8 149.27,-88.8 128.27,-88.8 125.27,-84.8 23.73,-84.8 23.73,-48.8 152.27,-48.8 152.27,-84.8"/>
<text text-anchor="middle" x="88" y="-62.6" font-family="Times,serif" font-size="14.00">AppRoutingModule</text>
</g>
<!-- AppRoutingModule&#45;&gt;AppModule -->
<g id="edge14" class="edge">
<title>AppRoutingModule&#45;&gt;AppModule</title>
<path fill="none" stroke="black" d="M88,-84.89C88,-107.93 88,-144.8 88,-144.8 88,-144.8 1108.31,-144.8 1108.31,-144.8"/>
<polygon fill="black" stroke="black" points="1108.31,-148.3 1118.31,-144.8 1108.31,-141.3 1108.31,-148.3"/>
</g>
</g>
</svg>
