<?xml version="1.0" encoding="UTF-8" standalone="no"?>
<!DOCTYPE svg PUBLIC "-//W3C//DTD SVG 1.1//EN"
 "http://www.w3.org/Graphics/SVG/1.1/DTD/svg11.dtd">
<!-- Generated by graphviz version 2.47.3 (20210619.1520)
 -->
<!-- Title: dependencies Pages: 1 -->
<svg width="2123pt" height="247pt"
 viewBox="0.00 0.00 2123.00 246.80" xmlns="http://www.w3.org/2000/svg" xmlns:xlink="http://www.w3.org/1999/xlink">
<g id="graph0" class="graph" transform="scale(1 1) rotate(0) translate(4 242.8)">
<title>dependencies</title>
<polygon fill="white" stroke="transparent" points="-4,4 -4,-242.8 2119,-242.8 2119,4 -4,4"/>
<text text-anchor="middle" x="1057.5" y="-8.2" font-family="sans-serif" font-size="14.00">dependencies</text>
<g id="clust1" class="cluster">
<title>cluster_AppModule</title>
<polygon fill="none" stroke="black" stroke-dasharray="1,5" points="8,-32.8 8,-230.8 2107,-230.8 2107,-32.8 8,-32.8"/>
</g>
<g id="clust16" class="cluster">
<title>cluster_AppModule_imports</title>
<polygon fill="none" stroke="black" points="1955,-40.8 1955,-92.8 2099,-92.8 2099,-40.8 1955,-40.8"/>
</g>
<g id="clust18" class="cluster">
<title>cluster_AppModule_bootstrap</title>
<polygon fill="none" stroke="black" points="1109,-170.8 1109,-222.8 1233,-222.8 1233,-170.8 1109,-170.8"/>
</g>
<g id="clust2" class="cluster">
<title>cluster_AppModule_declarations</title>
<polygon fill="none" stroke="black" points="16,-40.8 16,-92.8 1947,-92.8 1947,-40.8 16,-40.8"/>
</g>
<!-- AppComponent -->
<g id="node1" class="node">
<title>AppComponent</title>
<polygon fill="#ffffb3" stroke="black" points="1938.94,-84.8 1833.06,-84.8 1833.06,-48.8 1938.94,-48.8 1938.94,-84.8"/>
<text text-anchor="middle" x="1886" y="-62.6" font-family="Times,serif" font-size="14.00">AppComponent</text>
</g>
<!-- AppModule -->
<g id="node14" class="node">
<title>AppModule</title>
<polygon fill="#8dd3c7" stroke="black" points="1212.66,-149.8 1209.66,-153.8 1188.66,-153.8 1185.66,-149.8 1129.34,-149.8 1129.34,-113.8 1212.66,-113.8 1212.66,-149.8"/>
<text text-anchor="middle" x="1171" y="-127.6" font-family="Times,serif" font-size="14.00">AppModule</text>
</g>
<!-- AppComponent&#45;&gt;AppModule -->
<g id="edge1" class="edge">
<title>AppComponent&#45;&gt;AppModule</title>
<path fill="none" stroke="black" d="M1886,-84.84C1886,-106.46 1886,-139.8 1886,-139.8 1886,-139.8 1222.79,-139.8 1222.79,-139.8"/>
<polygon fill="black" stroke="black" points="1222.79,-136.3 1212.79,-139.8 1222.79,-143.3 1222.79,-136.3"/>
</g>
<!-- FooterComponent -->
<g id="node2" class="node">
<title>FooterComponent</title>
<polygon fill="#ffffb3" stroke="black" points="1814.88,-84.8 1697.12,-84.8 1697.12,-48.8 1814.88,-48.8 1814.88,-84.8"/>
<text text-anchor="middle" x="1756" y="-62.6" font-family="Times,serif" font-size="14.00">FooterComponent</text>
</g>
<!-- FooterComponent&#45;&gt;AppModule -->
<g id="edge2" class="edge">
<title>FooterComponent&#45;&gt;AppModule</title>
<path fill="none" stroke="black" d="M1756,-85.02C1756,-105.17 1756,-134.8 1756,-134.8 1756,-134.8 1223.07,-134.8 1223.07,-134.8"/>
<polygon fill="black" stroke="black" points="1223.07,-131.3 1213.07,-134.8 1223.07,-138.3 1223.07,-131.3"/>
</g>
<!-- ForDirective -->
<g id="node3" class="node">
<title>ForDirective</title>
<polygon fill="#ffffb3" stroke="black" points="1678.53,-84.8 1591.47,-84.8 1591.47,-48.8 1678.53,-48.8 1678.53,-84.8"/>
<text text-anchor="middle" x="1635" y="-62.6" font-family="Times,serif" font-size="14.00">ForDirective</text>
</g>
<!-- ForDirective&#45;&gt;AppModule -->
<g id="edge3" class="edge">
<title>ForDirective&#45;&gt;AppModule</title>
<path fill="none" stroke="black" d="M1635,-85.02C1635,-103.63 1635,-129.8 1635,-129.8 1635,-129.8 1223,-129.8 1223,-129.8"/>
<polygon fill="black" stroke="black" points="1223,-126.3 1213,-129.8 1223,-133.3 1223,-126.3"/>
</g>
<!-- HeaderComponent -->
<g id="node4" class="node">
<title>HeaderComponent</title>
<polygon fill="#ffffb3" stroke="black" points="1572.74,-84.8 1451.26,-84.8 1451.26,-48.8 1572.74,-48.8 1572.74,-84.8"/>
<text text-anchor="middle" x="1512" y="-62.6" font-family="Times,serif" font-size="14.00">HeaderComponent</text>
</g>
<!-- HeaderComponent&#45;&gt;AppModule -->
<g id="edge4" class="edge">
<title>HeaderComponent&#45;&gt;AppModule</title>
<path fill="none" stroke="black" d="M1512,-84.83C1512,-101.86 1512,-124.8 1512,-124.8 1512,-124.8 1222.81,-124.8 1222.81,-124.8"/>
<polygon fill="black" stroke="black" points="1222.81,-121.3 1212.81,-124.8 1222.81,-128.3 1222.81,-121.3"/>
</g>
<!-- HomeComponent -->
<g id="node5" class="node">
<title>HomeComponent</title>
<polygon fill="#ffffb3" stroke="black" points="1432.55,-84.8 1317.45,-84.8 1317.45,-48.8 1432.55,-48.8 1432.55,-84.8"/>
<text text-anchor="middle" x="1375" y="-62.6" font-family="Times,serif" font-size="14.00">HomeComponent</text>
</g>
<!-- HomeComponent&#45;&gt;AppModule -->
<g id="edge5" class="edge">
<title>HomeComponent&#45;&gt;AppModule</title>
<path fill="none" stroke="black" d="M1375,-85.04C1375,-100.37 1375,-119.8 1375,-119.8 1375,-119.8 1222.77,-119.8 1222.77,-119.8"/>
<polygon fill="black" stroke="black" points="1222.77,-116.3 1212.77,-119.8 1222.77,-123.3 1222.77,-116.3"/>
</g>
<!-- NavComponent -->
<g id="node6" class="node">
<title>NavComponent</title>
<polygon fill="#ffffb3" stroke="black" points="1299.15,-84.8 1194.85,-84.8 1194.85,-48.8 1299.15,-48.8 1299.15,-84.8"/>
<text text-anchor="middle" x="1247" y="-62.6" font-family="Times,serif" font-size="14.00">NavComponent</text>
</g>
<!-- NavComponent&#45;&gt;AppModule -->
<g id="edge6" class="edge">
<title>NavComponent&#45;&gt;AppModule</title>
<path fill="none" stroke="black" d="M1203.75,-84.91C1203.75,-84.91 1203.75,-103.79 1203.75,-103.79"/>
<polygon fill="black" stroke="black" points="1200.25,-103.79 1203.75,-113.79 1207.25,-103.79 1200.25,-103.79"/>
</g>
<!-- ProductCreateComponent -->
<g id="node7" class="node">
<title>ProductCreateComponent</title>
<polygon fill="#ffffb3" stroke="black" points="1176.91,-84.8 1015.09,-84.8 1015.09,-48.8 1176.91,-48.8 1176.91,-84.8"/>
<text text-anchor="middle" x="1096" y="-62.6" font-family="Times,serif" font-size="14.00">ProductCreateComponent</text>
</g>
<!-- ProductCreateComponent&#45;&gt;AppModule -->
<g id="edge7" class="edge">
<title>ProductCreateComponent&#45;&gt;AppModule</title>
<path fill="none" stroke="black" d="M1152.94,-84.91C1152.94,-84.91 1152.94,-103.79 1152.94,-103.79"/>
<polygon fill="black" stroke="black" points="1149.44,-103.79 1152.94,-113.79 1156.44,-103.79 1149.44,-103.79"/>
</g>
<!-- ProductCrudComponent -->
<g id="node8" class="node">
<title>ProductCrudComponent</title>
<polygon fill="#ffffb3" stroke="black" points="997.38,-84.8 844.62,-84.8 844.62,-48.8 997.38,-48.8 997.38,-84.8"/>
<text text-anchor="middle" x="921" y="-62.6" font-family="Times,serif" font-size="14.00">ProductCrudComponent</text>
</g>
<!-- ProductCrudComponent&#45;&gt;AppModule -->
<g id="edge8" class="edge">
<title>ProductCrudComponent&#45;&gt;AppModule</title>
<path fill="none" stroke="black" d="M921,-85.04C921,-100.37 921,-119.8 921,-119.8 921,-119.8 1119.16,-119.8 1119.16,-119.8"/>
<polygon fill="black" stroke="black" points="1119.16,-123.3 1129.16,-119.8 1119.16,-116.3 1119.16,-123.3"/>
</g>
<!-- ProductDeleteComponent -->
<g id="node9" class="node">
<title>ProductDeleteComponent</title>
<polygon fill="#ffffb3" stroke="black" points="826.91,-84.8 665.09,-84.8 665.09,-48.8 826.91,-48.8 826.91,-84.8"/>
<text text-anchor="middle" x="746" y="-62.6" font-family="Times,serif" font-size="14.00">ProductDeleteComponent</text>
</g>
<!-- ProductDeleteComponent&#45;&gt;AppModule -->
<g id="edge9" class="edge">
<title>ProductDeleteComponent&#45;&gt;AppModule</title>
<path fill="none" stroke="black" d="M746,-84.83C746,-101.86 746,-124.8 746,-124.8 746,-124.8 1119.09,-124.8 1119.09,-124.8"/>
<polygon fill="black" stroke="black" points="1119.09,-128.3 1129.09,-124.8 1119.09,-121.3 1119.09,-128.3"/>
</g>
<!-- ProductRead2Component -->
<g id="node10" class="node">
<title>ProductRead2Component</title>
<polygon fill="#ffffb3" stroke="black" points="647.15,-84.8 486.85,-84.8 486.85,-48.8 647.15,-48.8 647.15,-84.8"/>
<text text-anchor="middle" x="567" y="-62.6" font-family="Times,serif" font-size="14.00">ProductRead2Component</text>
</g>
<!-- ProductRead2Component&#45;&gt;AppModule -->
<g id="edge10" class="edge">
<title>ProductRead2Component&#45;&gt;AppModule</title>
<path fill="none" stroke="black" d="M567,-85.02C567,-103.63 567,-129.8 567,-129.8 567,-129.8 1119.01,-129.8 1119.01,-129.8"/>
<polygon fill="black" stroke="black" points="1119.01,-133.3 1129.01,-129.8 1119.01,-126.3 1119.01,-133.3"/>
</g>
<!-- ProductReadComponent -->
<g id="node11" class="node">
<title>ProductReadComponent</title>
<polygon fill="#ffffb3" stroke="black" points="468.65,-84.8 315.35,-84.8 315.35,-48.8 468.65,-48.8 468.65,-84.8"/>
<text text-anchor="middle" x="392" y="-62.6" font-family="Times,serif" font-size="14.00">ProductReadComponent</text>
</g>
<!-- ProductReadComponent&#45;&gt;AppModule -->
<g id="edge11" class="edge">
<title>ProductReadComponent&#45;&gt;AppModule</title>
<path fill="none" stroke="black" d="M392,-85.02C392,-105.17 392,-134.8 392,-134.8 392,-134.8 1119.12,-134.8 1119.12,-134.8"/>
<polygon fill="black" stroke="black" points="1119.12,-138.3 1129.12,-134.8 1119.12,-131.3 1119.12,-138.3"/>
</g>
<!-- ProductUpdateComponent -->
<g id="node12" class="node">
<title>ProductUpdateComponent</title>
<polygon fill="#ffffb3" stroke="black" points="297.81,-84.8 132.19,-84.8 132.19,-48.8 297.81,-48.8 297.81,-84.8"/>
<text text-anchor="middle" x="215" y="-62.6" font-family="Times,serif" font-size="14.00">ProductUpdateComponent</text>
</g>
<!-- ProductUpdateComponent&#45;&gt;AppModule -->
<g id="edge12" class="edge">
<title>ProductUpdateComponent&#45;&gt;AppModule</title>
<path fill="none" stroke="black" d="M215,-84.84C215,-106.46 215,-139.8 215,-139.8 215,-139.8 1119.31,-139.8 1119.31,-139.8"/>
<polygon fill="black" stroke="black" points="1119.31,-143.3 1129.31,-139.8 1119.31,-136.3 1119.31,-143.3"/>
</g>
<!-- RedDirective -->
<g id="node13" class="node">
<title>RedDirective</title>
<polygon fill="#ffffb3" stroke="black" points="114.13,-84.8 23.87,-84.8 23.87,-48.8 114.13,-48.8 114.13,-84.8"/>
<text text-anchor="middle" x="69" y="-62.6" font-family="Times,serif" font-size="14.00">RedDirective</text>
</g>
<!-- RedDirective&#45;&gt;AppModule -->
<g id="edge13" class="edge">
<title>RedDirective&#45;&gt;AppModule</title>
<path fill="none" stroke="black" d="M69,-84.89C69,-107.93 69,-144.8 69,-144.8 69,-144.8 1119.15,-144.8 1119.15,-144.8"/>
<polygon fill="black" stroke="black" points="1119.15,-148.3 1129.15,-144.8 1119.15,-141.3 1119.15,-148.3"/>
</g>
<!-- AppComponent  -->
<g id="node16" class="node">
<title>AppComponent </title>
<polygon fill="#80b1d3" stroke="black" points="1225.44,-214.8 1116.56,-214.8 1116.56,-178.8 1225.44,-178.8 1225.44,-214.8"/>
<text text-anchor="middle" x="1171" y="-192.6" font-family="Times,serif" font-size="14.00">AppComponent </text>
</g>
<!-- AppModule&#45;&gt;AppComponent  -->
<g id="edge15" class="edge">
<title>AppModule&#45;&gt;AppComponent </title>
<path fill="none" stroke="black" stroke-dasharray="1,5" d="M1171,-149.91C1171,-149.91 1171,-168.79 1171,-168.79"/>
<polygon fill="black" stroke="black" points="1167.5,-168.79 1171,-178.79 1174.5,-168.79 1167.5,-168.79"/>
</g>
<!-- AppRoutingModule -->
<g id="node15" class="node">
<title>AppRoutingModule</title>
<polygon fill="#8dd3c7" stroke="black" points="2091.27,-84.8 2088.27,-88.8 2067.27,-88.8 2064.27,-84.8 1962.73,-84.8 1962.73,-48.8 2091.27,-48.8 2091.27,-84.8"/>
<text text-anchor="middle" x="2027" y="-62.6" font-family="Times,serif" font-size="14.00">AppRoutingModule</text>
</g>
<!-- AppRoutingModule&#45;&gt;AppModule -->
<g id="edge14" class="edge">
<title>AppRoutingModule&#45;&gt;AppModule</title>
<path fill="none" stroke="black" d="M2027,-84.89C2027,-107.93 2027,-144.8 2027,-144.8 2027,-144.8 1222.87,-144.8 1222.87,-144.8"/>
<polygon fill="black" stroke="black" points="1222.87,-141.3 1212.87,-144.8 1222.87,-148.3 1222.87,-141.3"/>
</g>
</g>
</svg>
